<?xml version="1.0" encoding="iso-8859-1"?>
<!-- Generator: Adobe Illustrator 19.0.0, SVG Export Plug-In . SVG Version: 6.00 Build 0)  -->
<svg version="1.1" id="Layer_1" xmlns="http://www.w3.org/2000/svg" xmlns:xlink="http://www.w3.org/1999/xlink" x="0px" y="0px"
	 viewBox="0 0 512.036 512.036" style="enable-background:new 0 0 512.036 512.036;" xml:space="preserve">
<g transform="translate(-1)">
	<g>
		<g>
			<path d="M274.108,314.855c0-60.655,49.766-110.003,110.933-110.003c54.426,0,93.926-35.627,93.926-84.71v-16.887
				c-10.103-5.897-21.811-9.335-34.33-9.335h-8.533c-98.739,0-179.063,80.333-179.063,179.072c0,17.263,6.477,33.007,17.067,45.056
				V314.855z"/>
			<path d="M496.037,117.339v2.799c0,58.982-46.686,101.786-111.002,101.786c-51.755,0-93.858,41.694-93.858,92.928v17.246
				c10.086,5.871,21.768,9.293,34.253,9.293h8.533c98.748,0,179.072-80.333,179.072-179.072
				C513.036,145.09,506.584,129.38,496.037,117.339z"/>
			<path d="M127.937,148.747c-0.188,0.444-0.427,0.862-0.7,1.263c-14.029,20.983-18.475,46.251-12.186,69.333
				c6.084,22.374,21.905,40.713,44.544,51.644l16.777,7.159c9.779-6.383,18.099-15.07,23.663-25.924l3.9-7.612
				c21.427-41.813,24.858-89.199,9.677-133.427C197.8,65.137,163.982,28.094,118.38,6.872c-16.282-7.578-34.15-8.525-50.355-4.07
				l2.85,1.434C128.176,30.902,152.812,93.075,127.937,148.747z"/>
			<path d="M105.561,283.339c9.907,4.617,20.412,6.801,30.771,6.801c6.409,0,12.757-0.862,18.876-2.475l-2.671-1.143
				c-27.52-13.286-46.558-35.49-53.956-62.694c-7.518-27.622-2.389-57.711,14.054-82.679c20.489-46.763-0.563-98.918-49.186-121.549
				L47.85,11.783c-9.924,6.391-18.312,15.223-23.945,26.214l-3.9,7.603c-21.427,41.813-24.858,89.207-9.677,133.436
				C26.141,225.073,59.968,262.125,105.561,283.339z"/>
			<path d="M163.548,402.707c42.24,42.453,88.457,43.58,130.159,3.157c0.23-0.222,0.469-0.427,0.725-0.623l11.597-8.96
				c-3.217-12.39-10.018-23.663-19.942-32.58l-6.306-5.76c-75.034-69.478-191.454-66.603-259.354,6.221
				C8.71,375.998,2.02,391.188,1.184,407.367l3.157-2.449C58.801,355.68,115.514,354.742,163.548,402.707z"/>
			<path d="M151.466,414.757c-41.779-41.719-87.603-40.644-136.175,3.234l-12.083,9.387c3.208,12.322,9.916,23.552,19.712,32.503
				l6.349,5.794c0.06,0.06,0.128,0.111,0.196,0.171c35.866,30.788,81.468,46.063,126.771,46.063
				c48.597,0,96.845-17.587,132.318-52.471c11.819-11.844,18.586-26.999,19.473-43.127l-2.79,2.15
				C256.529,465.402,200.516,464.054,151.466,414.757z"/>
		</g>
	</g>
</g>
<g>
</g>
<g>
</g>
<g>
</g>
<g>
</g>
<g>
</g>
<g>
</g>
<g>
</g>
<g>
</g>
<g>
</g>
<g>
</g>
<g>
</g>
<g>
</g>
<g>
</g>
<g>
</g>
<g>
</g>
</svg>
