<?xml version="1.0" encoding="utf-8"?>
<!-- Generator: Adobe Illustrator 24.3.0, SVG Export Plug-In . SVG Version: 6.00 Build 0)  -->
<svg version="1.1" id="Layer_1" xmlns="http://www.w3.org/2000/svg" xmlns:xlink="http://www.w3.org/1999/xlink" x="0px" y="0px"
	 viewBox="0 0 360 288" style="enable-background:new 0 0 360 288;" xml:space="preserve">
<style type="text/css">
	.st0{fill:#FFFFFF;}
</style>
<path class="st0" d="M106.42,82.14c-0.14,4.38-0.45,10.19-0.46,15.99c-0.01,6.39,0.31,12.78,0.4,19.17
	c0.09,6.35,0.08,12.7,0.07,19.05c0,0.82-0.24,1.67-0.5,2.47c-0.47,1.45-1.73,2.04-3.23,1.97c-1.55-0.08-2.35-1.11-2.57-2.46
	c-0.17-1.02-0.24-2.07-0.23-3.11c0.08-6.9,0.24-13.79,0.29-20.69c0.04-5.73-0.01-11.47-0.06-17.2c-0.01-1.19-0.18-2.38-0.22-3.56
	c-0.05-1.63-0.06-3.25-0.04-4.88c0.01-1.17,0.44-2.76-1.04-3.1c-1.52-0.34-2,1.27-2.41,2.34c-1.22,3.17-2.23,6.41-3.48,9.57
	c-1.03,2.6-2.38,5.09-3.42,7.69c-1.67,4.17-3.19,8.38-4.81,12.57c-0.69,1.78-1.94,2.74-3.44,2.68c-1.78-0.08-2.63-1.21-3.11-2.6
	c-0.79-2.27-2.05-4.3-3.24-6.4c-1.44-2.55-2.02-5.5-3.11-8.23c-1.51-3.79-3.15-7.54-4.73-11.3c-0.77-1.84-1.45-3.72-2.35-5.51
	c-0.26-0.52-1.15-1.08-1.73-1.07c-0.43,0.01-0.86,0.9-1.25,1.43c-0.1,0.14-0.07,0.39-0.06,0.58c0.14,5.05,0.32,10.11,0.42,15.16
	c0.06,2.91-0.01,5.83,0,8.74c0,4.3,0.08,8.61,0,12.91c-0.03,1.6-0.27,3.24-0.71,4.78c-0.57,2-1.44,3.93-2.19,5.89
	c-1.5,3.95-4.74,6.51-8.3,8.79c-4.3,2.75-9.11,3.92-14.3,3.69c-11.27-0.52-20.2-7.42-22.92-17.42c-1.05-3.84-0.72-7.53,0.32-11.29
	c2.95-10.69,13.87-18.05,25.8-16.93c2.99,0.28,5.88,1.71,8.76,2.75c0.65,0.24,1.19,1,1.55,1.63c0.93,1.59,0.07,3.2-1.87,3.16
	c-1.89-0.03-3.81-0.44-5.65-0.91c-7.9-2-18.29,1.33-21.75,9.41c-2.02,4.71-2.65,9.67,0.13,14.08c2.95,4.69,7.1,8.55,13.53,9.21
	c3.46,0.36,6.87,0.11,10.16-0.99c5.13-1.73,8.13-5.24,9.69-9.97c1.04-3.17,1.41-6.38,1.39-9.68c-0.03-4.16,0.26-8.33,0.24-12.49
	c-0.02-5.49-0.24-10.97-0.3-16.46c-0.03-2.52,0.11-5.04,0.14-7.57c0.06-4.41,0.05-8.81,0.15-13.22c0.05-2.4-0.37-2.97-2.99-3.27
	c-2.67-0.31-5.37-0.58-7.93,0.47c-2.32,0.95-3.03,2.4-2.53,4.69c0.57,2.62,2.01,4.45,4.99,4.61c2.14,0.12,3.72,2.61,2.79,4.35
	c-0.38,0.7-1.63,1.42-2.49,1.42C41.23,83.11,36,78.39,36.2,72.55c0.07-2.12,0.72-4.32,1.57-6.31c1.36-3.16,4.62-4.07,7.85-4.4
	c4.25-0.43,8.55-0.48,12.84-0.66c1.79-0.08,3,0.89,3.64,2.27c1.16,2.49,2.11,5.08,3.17,7.61c2.26,5.39,4.88,10.68,6.71,16.2
	c1.24,3.74,3.17,7.12,4.74,10.68c0.68,1.54,0.85,3.27,1.46,4.83c0.51,1.31,1.34,2.78,2.98,2.84c1.63,0.06,2.36-1.48,2.88-2.69
	c2.19-5.1,4.26-10.23,6.35-15.36c1.62-3.98,3.24-7.96,4.79-11.96c1.26-3.26,2.38-6.57,3.66-9.82c0.42-1.05,1.11-2.03,1.77-2.98
	c0.68-0.98,1.83-1.47,2.93-1c0.91,0.39,1.9,1.2,2.24,2.03c0.5,1.21,0.59,2.61,0.62,3.93C106.46,72.08,106.42,76.4,106.42,82.14z"/>
<path class="st0" d="M205.3,87.66c-0.23,4.9-0.57,9.81-0.65,14.71c-0.06,3.36,0.23,6.72,0.37,10.09c0.02,0.45,0.09,0.89,0.09,1.34
	c0,4.3,0.04,8.6-0.04,12.9c-0.04,2.48-1.36,3.77-3.53,3.35c-0.96-0.19-2.39-1.01-2.52-1.7c-0.6-3.38-2.83-6.06-4.14-9.11
	c-1.45-3.4-2.54-6.93-3.9-10.36c-0.99-2.51-2.16-4.95-3.25-7.42c-0.06-0.14-0.13-0.29-0.24-0.38c-0.63-0.47-1.29-0.93-1.93-1.39
	c-0.36,0.67-0.99,1.34-1.02,2.02c-0.11,2.71-0.01,5.44-0.04,8.15c-0.04,3.67-0.12,7.33-0.21,10.99c-0.04,1.73-0.1,3.47-0.25,5.2
	c-0.07,0.83-0.33,1.65-0.59,2.45c-0.39,1.18-1.23,1.84-2.65,1.66c-1.4-0.18-2.57-0.79-2.71-2.15c-0.25-2.35-0.36-4.73-0.37-7.09
	c0-4.31,0.17-8.62,0.17-12.93c0-2.28-0.37-4.56-0.33-6.83c0.11-5.85,0.36-11.69,0.53-17.54c0.05-1.63-0.08-3.27-0.01-4.91
	c0.09-2.33,1.45-3.37,3.94-3.28c1.32,0.05,1.92,0.81,2.34,1.74c0.88,1.97,1.68,3.96,2.51,5.95c1.68,4.01,3.3,8.04,5.06,12.02
	c0.93,2.1,2.1,4.11,3.18,6.15c0.19,0.35,0.41,0.74,0.74,0.96c0.44,0.3,1.05,0.68,1.5,0.6c0.42-0.08,0.97-0.69,1.02-1.11
	c0.2-1.92,0.33-3.85,0.32-5.78c-0.02-5.1-0.14-10.2-0.18-15.31c-0.01-1.09,0.09-2.18,0.23-3.27c0.19-1.48,1.18-2.32,2.75-2.44
	c1.52-0.11,2.91,0.6,3.07,2.03c0.35,3.19,0.43,6.41,0.61,9.62c0.02,0.35,0,0.69,0,1.04C205.2,87.66,205.25,87.66,205.3,87.66z"/>
<path class="st0" d="M254.93,87.66c-0.23,4.9-0.57,9.81-0.65,14.71c-0.06,3.36,0.23,6.72,0.37,10.09c0.01,0.2,0.05,0.4,0.05,0.59
	c0.01,4.6,0.07,9.2-0.01,13.79c-0.04,2.38-1.39,3.63-3.51,3.21c-0.96-0.19-2.4-1-2.52-1.7c-0.61-3.38-2.83-6.06-4.14-9.11
	c-1.45-3.4-2.54-6.93-3.9-10.36c-0.99-2.51-2.16-4.95-3.25-7.42c-0.06-0.14-0.13-0.29-0.24-0.38c-0.63-0.47-1.29-0.93-1.93-1.39
	c-0.36,0.67-1,1.34-1.03,2.02c-0.11,2.71-0.01,5.44-0.04,8.15c-0.04,3.67-0.12,7.33-0.21,10.99c-0.04,1.73-0.1,3.47-0.25,5.2
	c-0.07,0.83-0.33,1.65-0.59,2.45c-0.39,1.18-1.23,1.85-2.64,1.66c-1.4-0.18-2.57-0.79-2.71-2.15c-0.25-2.35-0.37-4.73-0.37-7.09
	c0-4.31,0.17-8.62,0.17-12.93c0-2.33-0.37-4.65-0.33-6.98c0.11-5.8,0.36-11.59,0.53-17.39c0.05-1.63-0.08-3.27-0.01-4.91
	c0.09-2.34,1.45-3.37,3.93-3.28c1.32,0.05,1.92,0.8,2.34,1.74c0.88,1.97,1.68,3.96,2.51,5.95c1.68,4.01,3.3,8.04,5.06,12.02
	c0.93,2.1,2.1,4.11,3.18,6.15c0.19,0.35,0.41,0.74,0.74,0.96c0.44,0.3,1.05,0.68,1.5,0.6c0.42-0.08,0.98-0.69,1.02-1.11
	c0.2-1.87,0.33-3.75,0.33-5.63c-0.02-4.85-0.15-9.71-0.19-14.56c-0.01-1.39,0.08-2.78,0.24-4.16c0.16-1.48,1.17-2.32,2.74-2.44
	c1.53-0.11,2.69,0.61,3.11,2.02c0.22,0.76,0.42,1.55,0.43,2.34c0.05,2.78,0.02,5.55,0.02,8.33
	C254.75,87.65,254.84,87.66,254.93,87.66z"/>
<path class="st0" d="M146.09,100.75c0-7.49,0-14.98,0-22.47c0-1.58,1.23-2.57,2.53-2.69c6.48-0.6,12.98-0.98,18.92,2.35
	c2.07,1.16,3.28,2.67,3.57,4.97c0.67,5.38,1.11,10.78,0.34,16.14c-0.26,1.81-1.48,3.58-2.6,5.17c-0.75,1.07-0.74,1.6,0.2,2.48
	c1.72,1.61,2.55,3.62,2.58,5.91c0.06,4.61,0.2,9.22,0.21,13.83c0,2.18-0.87,3.11-2.89,3.54c-1.46,0.31-2.59-0.14-3.13-1.43
	c-0.32-0.76-0.49-1.63-0.51-2.45c-0.06-4.41-0.07-8.83-0.07-13.24c0-1.54-1.02-2.33-2.39-2.85c-2.69-1.01-5.4-0.68-8.05,0.08
	c-1.52,0.44-2.32,1.54-2.29,3.08c0.08,3.86,0.21,7.72,0.23,11.58c0.01,1.13-0.19,2.27-0.45,3.37c-0.27,1.15-1.09,1.96-2.43,2.04
	c-1.35,0.08-2.39-0.61-2.69-1.73c-0.54-2-1.01-4.06-1.14-6.11c-0.16-2.37,0.13-4.76,0.14-7.14c0.03-4.81,0.01-9.62,0.01-14.43
	C146.14,100.75,146.12,100.75,146.09,100.75z M152.93,92.72c-0.04,0.01-0.09,0.01-0.13,0.02c0,2.51-0.11,5.03,0.04,7.54
	c0.08,1.39,1.11,2.46,2.62,2.66c1.49,0.2,3.05,0.15,4.56,0.02c2.65-0.22,5.17-2.8,5.21-5.31c0.05-3.37,0.07-6.74-0.08-10.1
	c-0.05-1.14-0.48-2.34-1.05-3.37c-1.58-2.84-4.61-3.13-7.58-3.31c-2.94-0.18-4.21,1.15-4.02,3.87
	C152.69,87.4,152.79,90.06,152.93,92.72z"/>
<path class="st0" d="M262,111.41c-0.15-2.96-0.39-6.47-0.48-9.98c-0.04-1.43,0.36-2.86,0.37-4.29c0.03-3.17,0.07-6.35-0.13-9.51
	c-0.33-5.32,4.43-12,11.73-12.24c8.3-0.27,13.53,4.18,13.51,11.89c0,1.34,0.03,2.68-0.09,4.02c-0.18,2-1.64,3.04-3.76,2.76
	c-1.4-0.18-1.78-1.21-1.89-2.27c-0.15-1.33-0.06-2.68-0.17-4.01c-0.21-2.54-0.79-4.79-3.71-6.07c-3.05-1.34-7.57,0.56-8.31,3.61
	c-1.21,4.96-0.48,9.97-0.69,14.96c-0.22,5.25-0.27,10.51-0.22,15.76c0.04,4.54,0.94,6.43,5.22,7.88c0.75,0.26,1.79,0.16,2.58-0.09
	c3.73-1.17,4.88-4.11,5.2-7.27c0.29-2.8,0.11-5.65,0-8.48c-0.03-0.91-0.4-1.84-0.77-2.71c-0.39-0.93-1.14-1.48-2.34-1.52
	c-0.9-0.03-1.82-0.22-2.67-0.5c-1.2-0.4-1.87-1.23-1.92-2.48c-0.05-1.25,0.62-1.96,1.79-2.34c0.55-0.18,1.13-0.35,1.71-0.38
	c1.93-0.1,3.86-0.17,5.79-0.19c2.91-0.03,4.65,1.19,4.78,3.76c0.2,4,0.18,8.01,0.12,12.02c-0.03,2.18-0.38,4.35-0.51,6.52
	c-0.24,4.15-3.04,6.72-6.58,8.58c-4.64,2.43-9.64,1.75-13.8-0.66c-2.63-1.52-4.63-4.43-4.75-7.74
	C261.92,117.62,262,114.79,262,111.41z"/>
<path class="st0" d="M113.77,107.27c0-5.45-0.09-10.9,0.04-16.35c0.06-2.66,0.1-5.42,0.87-7.95c1.1-3.59,3.86-6.01,7.89-7
	c7.33-1.8,15.27,1.1,16.57,9.12c0.58,3.6-0.1,7.38-0.16,11.08c-0.03,1.88,0.05,3.76,0.08,5.64c0.08,5.6,0.37,11.21,0.17,16.81
	c-0.13,3.6-1.8,6.93-4.72,9.33c-1.36,1.11-3.56,1.49-5.46,1.88c-3.38,0.69-6.64,0.48-9.76-1.29c-3.72-2.12-5.27-5.34-5.53-9.06
	c-0.29-4.05-0.06-8.13-0.06-12.2C113.73,107.27,113.75,107.27,113.77,107.27z M119.73,107.39c0.1,0,0.2,0,0.3,0
	c0,3.28,0.11,6.55-0.03,9.82c-0.11,2.45,1.09,4.21,2.98,5.64c1.83,1.39,3.92,1.8,6.17,0.85c2.09-0.87,3.31-2.38,3.44-4.49
	c0.17-2.81,0.33-5.62,0.28-8.43c-0.09-5.9-0.36-11.79-0.48-17.68c-0.04-1.98,0.31-3.96,0.2-5.93c-0.08-1.34-0.27-2.91-1.07-3.94
	c-1.72-2.21-4.35-2.51-7.11-1.87c-1.99,0.47-4.19,2.81-4.32,4.77c-0.19,2.72-0.3,5.45-0.34,8.18
	C119.69,98.68,119.73,103.03,119.73,107.39z"/>
<path class="st0" d="M213.76,126.39c-0.19-1.12-0.44-2.23-0.56-3.36c-0.11-1.13-0.14-2.27-0.12-3.4c0.11-6.34,0.37-12.68,0.33-19.01
	c-0.06-7.36-0.4-14.71-0.59-22.07c-0.05-1.72,1.04-2.85,2.81-3.06c2.3-0.27,3.5,0.38,4.01,2.23c0.17,0.62,0.28,1.27,0.26,1.9
	c-0.1,3.66-0.34,7.32-0.36,10.98c-0.02,3.46,0.28,6.92,0.27,10.38c-0.02,6.1-0.21,12.19-0.24,18.29c-0.01,2.42,0.28,4.85,0.31,7.27
	c0.02,2.12-1.13,3.42-2.98,3.66c-2.18,0.28-3.37-0.7-3.33-2.74c0.01-0.35,0.03-0.69,0.05-1.04
	C213.66,126.4,213.71,126.39,213.76,126.39z"/>
<path class="st0" d="M183.07,139.11c2.93,0.17,5.87,0.41,8.8,0.5c2.51,0.08,5.03,0.08,7.54-0.04c2.36-0.12,4.03,1.02,4.1,3.19
	c0.09,2.97,0.08,5.94,0.07,8.91c0,2.23-0.09,4.47-0.09,6.7c-0.01,7.89-0.06,15.77,0.02,23.66c0.04,3.65,0.41,7.29,0.5,10.93
	c0.05,2.02-0.24,4.04-0.27,6.06c-0.06,3.51-0.05,7.03-0.03,10.54c0.01,2.28,0.19,4.56,0.07,6.83c-0.1,1.86-1.32,2.97-2.9,3.04
	c-1.9,0.08-3.58-1.08-3.83-2.91c-1.24-9.08-6.67-16.16-12.74-22.93c-0.66-0.74-1.6-1.34-2.53-1.77c-2.33-1.08-3.68-0.69-4.84,1.45
	c-2.16,3.98-4.2,8.01-6.29,12.03c-1.34,2.58-2.67,5.17-3.99,7.75c-2.48,4.84-6.89,7.9-11.92,9.95c-8.92,3.63-17.41,2.11-25.18-3.02
	c-8.28-5.47-10.16-13.24-8.71-22.01c1.16-7.03,5.61-11.91,12.2-15.28c1.22-0.62,2.44-1.24,3.65-1.87c2.93-1.54,6.13-1.3,9.28-1.11
	c4.89,0.29,9.51,1.46,13.55,4.15c1.4,0.94,2.44,2.09,2.14,3.88c-0.34,1.98-2.05,2.88-3.96,2c-1.49-0.68-2.95-1.4-4.39-2.17
	c-3.67-1.97-7.33-2.93-11.76-2.01c-3.85,0.8-7.12,2.1-9.76,4.71c-6.55,6.47-7.53,16.91,0.61,24.17c2.72,2.42,5.81,4.29,9.64,4.7
	c1.6,0.17,3.3,0.02,4.9-0.25c2.56-0.44,5.18-0.67,7.49-2.05c4-2.39,6.41-5.94,8.49-9.71c1.72-3.13,3.25-6.34,4.81-9.54
	c1.74-3.55,3.43-7.12,5.13-10.68c0.67-1.42,0.24-2.79-0.94-3.65c-2.21-1.6-4.51-3.16-6.99-4.38c-2.96-1.46-6.14-2.54-9.23-3.78
	c-0.1-0.04-0.18-0.12-0.28-0.14c-3.82-0.61-7.64-1.23-11.46-1.82c-0.47-0.07-0.97,0.02-1.45-0.01c-1.82-0.12-3.19-1.17-3.3-2.51
	c-0.1-1.19,1.31-2.74,2.98-2.86c2.02-0.14,4.07-0.03,6.1,0.08c7.31,0.37,13.73,3.29,20.15,6.15c1.48,0.66,2.77,1.69,4.27,2.29
	c3.48,1.39,5.83,0.69,7.51-2.36c3.55-6.43,6.96-12.93,10.43-19.4c0.72-1.33,1.47-2.64,2.24-3.94c1.67-2.83,0.82-5.06-2.54-5.29
	c-4.19-0.29-8.48-0.76-12.63,0.38c-1.13,0.31-2.22,1.01-3.09,1.77c-1.42,1.25-1.48,2.94-0.42,4.48c1.35,1.95,3.13,3.38,5.62,3.93
	c1.36,0.3,2.19,0.98,2.21,2.35c0.02,1.67-0.74,2.83-2.28,3.21c-2.34,0.57-4.5-0.14-6.46-1.2c-6.29-3.4-7.89-13.71-1.53-18.05
	c2.31-1.58,4.48-2.79,7.42-2.58c1.27,0.09,2.57-0.1,3.86-0.16C183.05,139.29,183.06,139.2,183.07,139.11z M197.68,168.64
	c-0.08-1.3-0.03-2.81-0.34-4.25c-0.15-0.7-0.87-1.59-1.54-1.79c-0.51-0.15-1.54,0.53-2,1.08c-0.85,1-1.47,2.17-2.14,3.29
	c-2.15,3.58-4.2,7.21-6.47,10.73c-1.54,2.39-1.77,4.71-0.04,6.95c1.73,2.25,3.71,4.33,5.58,6.49c0.9,1.03,1.83,2.04,2.68,3.11
	c0.64,0.81,1.15,1.8,2.5,1.42c1.23-0.36,1.2-1.38,1.2-2.34c0-0.25,0-0.5,0-0.74c0.19-7.13,0.38-14.26,0.57-21.38
	C197.69,170.41,197.68,169.62,197.68,168.64z"/>
<path class="st0" d="M274.96,183.05c0.21-6.3,0.49-12.6,0.61-18.9c0.05-2.56-0.19-5.14-0.35-7.7c-0.08-1.3,0.16-2.41,1.6-2.94
	c1.52-0.56,3.39-0.09,4.1,1.2c0.67,1.22,0.94,2.61,1.47,3.9c0.96,2.36,2.15,4.65,2.95,7.05c1.02,3.07,1.68,6.24,2.62,9.33
	c0.34,1.12,0.94,2.22,1.65,3.18c1.04,1.39,2.69,1.4,3.48-0.1c1.07-2.03,1.78-4.22,2.61-6.36c1.68-4.29,2.76-8.72,3.83-13.16
	c0.39-1.61,1.81-3.15,3.12-4.39c0.65-0.61,2.18-0.73,3.23-0.58c1.16,0.17,1.54,1.27,1.5,2.35c-0.16,4.21-0.32,8.42-0.48,12.64
	c-0.02,0.45-0.03,0.89-0.02,1.34c0.13,8.68,0.28,17.35,0.39,26.03c0.04,3.17,0.08,6.35-0.02,9.52c-0.06,1.72-1.1,2.56-2.82,2.66
	c-2.29,0.13-3.27-0.71-3.43-3.14c-0.11-1.68-0.09-3.37-0.11-5.06c-0.05-4.66-0.07-9.33-0.14-13.99c-0.01-0.89-0.15-1.79-0.36-2.65
	c-0.1-0.43-0.5-0.8-0.77-1.19c-0.44,0.31-1.09,0.54-1.28,0.95c-0.97,2.14-1.86,4.31-2.7,6.5c-0.65,1.7-1.26,3.38-3.06,4.39
	c-1.66,0.94-3.12,0.84-3.94-0.76c-1.28-2.48-2.13-5.15-3.26-7.7c-0.48-1.08-1.11-2.14-1.86-3.07c-0.3-0.37-1.11-0.4-1.69-0.58
	c-0.14,0.45-0.42,0.9-0.41,1.34c0.14,5.26,0.34,10.51,0.49,15.77c0.06,1.97,0.09,3.94,0,5.9c-0.09,1.99-1.35,3.1-3.32,3.09
	c-2.39-0.01-3.4-0.85-3.48-3.15c-0.1-2.68-0.05-5.36-0.05-8.04c0-4.56,0-9.13,0-13.69C275.04,183.06,275,183.06,274.96,183.05z"/>
<path class="st0" d="M211.5,178.78c0-7.49,0-14.98,0-22.47c0-1.29,1.09-2.72,2.57-2.84c6.38-0.5,12.76-0.93,18.64,2.27
	c2.18,1.19,3.52,2.71,3.82,5.13c0.66,5.33,1.11,10.68,0.34,16c-0.28,1.9-1.62,3.71-2.73,5.43c-0.58,0.89-0.69,1.37,0.13,2.13
	c1.82,1.68,2.74,3.74,2.77,6.15c0.06,4.61,0.2,9.22,0.2,13.83c0,2.15-0.9,3.09-2.93,3.51c-1.39,0.29-2.49-0.14-3.04-1.34
	c-0.34-0.75-0.54-1.62-0.55-2.44c-0.07-4.41-0.08-8.83-0.06-13.24c0.01-1.54-0.92-2.39-2.29-2.92c-2.73-1.05-5.5-0.73-8.2,0.06
	c-1.52,0.45-2.28,1.58-2.25,3.1c0.09,3.81,0.21,7.62,0.23,11.43c0.01,1.17-0.03,2.45-0.52,3.5c-0.38,0.82-1.36,1.68-2.28,1.95
	c-1.25,0.38-2.42-0.46-2.73-1.57c-0.58-2.04-1.05-4.15-1.19-6.25c-0.16-2.37,0.13-4.76,0.14-7.14c0.03-4.76,0.01-9.52,0.01-14.28
	C211.55,178.78,211.52,178.78,211.5,178.78z M230.65,170.57c-0.01,0-0.03,0-0.04,0c0-1.68,0.13-3.38-0.04-5.05
	c-0.12-1.15-0.48-2.34-1.04-3.38c-1.47-2.75-4.39-3.11-7.24-3.33c-3.38-0.26-4.66,1.16-4.35,4.27c0.22,2.16,0.2,4.34,0.19,6.51
	c-0.01,2.32-0.22,4.65-0.18,6.97c0.03,1.72,0.43,3.4,2.42,4.19c2.49,0.99,5.13,0.69,7.23-0.48c2.11-1.18,3.36-3.27,3.08-5.84
	C230.54,173.15,230.65,171.85,230.65,170.57z"/>
<path class="st0" d="M242.99,185.13c0-5.4-0.08-10.8,0.03-16.2c0.06-2.66,0.07-5.43,0.84-7.95c1.07-3.5,3.71-5.94,7.68-7.02
	c6.71-1.83,15.15,0.61,16.9,8.98c0.1,0.47-0.03,0.98-0.06,1.48c-0.07,1.28-0.2,2.55-0.21,3.83c-0.01,1.53,0.09,3.07,0.12,4.6
	c0.06,2.77,0.13,5.54,0.15,8.31c0.04,5.16,0.25,10.33,0,15.48c-0.17,3.54-1.92,6.69-4.61,9.25c-0.7,0.67-1.8,1.11-2.8,1.35
	c-4.61,1.1-9.11,1.62-13.37-1.31c-3.2-2.2-4.44-5.23-4.67-8.59c-0.28-4.05-0.07-8.13-0.07-12.2
	C242.94,185.13,242.97,185.13,242.99,185.13z M248.94,185.42c0.1,0,0.2,0,0.3,0c0,3.23,0.11,6.46-0.04,9.68
	c-0.11,2.45,1.06,4.21,2.94,5.66c1.82,1.39,3.9,1.83,6.16,0.89c2.1-0.86,3.34-2.35,3.47-4.46c0.18-2.81,0.34-5.62,0.29-8.43
	c-0.09-6.05-0.35-12.09-0.48-18.13c-0.04-1.83,0.31-3.67,0.19-5.49c-0.08-1.35-0.25-2.92-1.04-3.95c-1.7-2.22-4.33-2.54-7.09-1.91
	c-2,0.46-4.21,2.77-4.36,4.74c-0.2,2.72-0.31,5.45-0.35,8.18C248.9,176.61,248.94,181.02,248.94,185.42z"/>
<path class="st0" d="M340.85,202.96c0,0.79,0.02,1.59,0,2.38c-0.05,1.52-0.93,2.27-2.53,2.58c-1.47,0.29-2.35-0.33-2.79-1.43
	c-0.52-1.28-0.77-2.66-1.13-4c-0.28-1.06-0.43-2.15-0.84-3.17c-0.79-1.96-2.35-3.02-4.67-3.01c-0.38,0-0.75,0.01-1.13-0.01
	c-5.32-0.17-5.68,0.9-6.92,5.37c-0.31,1.1-0.44,2.25-0.75,3.35c-0.4,1.43-0.97,2.8-2.83,3.06c-2.76,0.39-4.24-0.63-3.78-3.16
	c0.79-4.32,2.07-8.57,3.13-12.85c0.56-2.26,1.13-4.52,1.63-6.79c1.03-4.69,2.03-9.39,3.01-14.1c0.32-1.56,0.49-3.14,0.83-4.69
	c0.85-3.88,1.69-7.76,2.73-11.59c0.17-0.63,1.3-1.26,2.12-1.47c1.4-0.36,2.72,0.16,3.41,1.38c0.46,0.81,0.62,1.77,0.84,2.68
	c0.55,2.31,1.1,4.61,1.57,6.94c0.38,1.89,0.61,3.81,0.98,5.71c0.6,3.11,1.15,6.24,1.93,9.31c1.05,4.14,2.46,8.21,3.44,12.36
	c0.86,3.67,1.35,7.41,2,11.12C341.02,202.93,340.93,202.94,340.85,202.96z M326.87,190.36c2.77,0,4.21-1.44,3.87-4.1
	c-0.38-2.9-0.91-5.77-1.43-8.65c-0.21-1.18-0.17-2.76-1.75-2.92c-0.44-0.05-1.35,1.78-1.63,2.85c-0.81,3.07-1.39,6.19-2.12,9.29
	C323.28,189.06,324.36,190.36,326.87,190.36z"/>
</svg>
